HIERARCHY
ROOT Hips
{
	OFFSET 0.00000 0.00000 0.00000
	CHANNELS 6 Xposition Yposition Zposition Zrotation Yrotation Xrotation 
	JOINT LHipJoint
	{
		OFFSET 0 0 0
		CHANNELS 3 Zrotation Yrotation Xrotation
		JOINT LeftHip
		{
			OFFSET 1.44361 -1.63093 0.70831
			CHANNELS 3 Zrotation Yrotation Xrotation
			JOINT LeftKnee
			{
				OFFSET 2.20103 -6.04728 0.00000
				CHANNELS 3 Zrotation Yrotation Xrotation
				JOINT LeftAnkle
				{
					OFFSET 2.54154 -6.98283 0.00000
					CHANNELS 3 Zrotation Yrotation Xrotation
					JOINT LeftToe
					{
						OFFSET 0.05971 -0.16406 1.77582
						CHANNELS 3 Zrotation Yrotation Xrotation
						End Site
						{
							OFFSET 0.00000 -0.00000 0.90832
						}
					}
				}
			}
		}
	}
	JOINT RHipJoint
	{
		OFFSET 0 0 0
		CHANNELS 3 Zrotation Yrotation Xrotation
		JOINT RightHip
		{
			OFFSET -1.65838 -1.63093 0.70830
			CHANNELS 3 Zrotation Yrotation Xrotation
			JOINT RightKnee
			{
				OFFSET -2.26926 -6.23475 0.00000
				CHANNELS 3 Zrotation Yrotation Xrotation
				JOINT RightAnkle
				{
					OFFSET -2.34808 -6.45129 0.00000
					CHANNELS 3 Zrotation Yrotation Xrotation
					JOINT RightToe
					{
						OFFSET -0.18633 -0.51195 1.68539
						CHANNELS 3 Zrotation Yrotation Xrotation
						End Site
						{
							OFFSET -0.00000 -0.00000 0.88927
						}
					}
				}
			}
		}
	}
	JOINT lowerback
	{
		OFFSET 0 0 0
		CHANNELS 3 Zrotation Yrotation Xrotation
		JOINT Chest
		{
			OFFSET -0.10393 2.01691 0.06920
			CHANNELS 3 Zrotation Yrotation Xrotation
			JOINT Chest2
			{
				OFFSET 0.04092 2.01302 -0.05283
				CHANNELS 3 Zrotation Yrotation Xrotation
				JOINT lowerneck
				{
					OFFSET 0 0 0
					CHANNELS 3 Zrotation Yrotation Xrotation
					JOINT Neck
					{
						OFFSET -0.02870 1.58978 -0.03113
						CHANNELS 3 Zrotation Yrotation Xrotation
						JOINT Head
						{
							OFFSET 0.11532 1.54326 -0.29195
							CHANNELS 3 Zrotation Yrotation Xrotation
							End Site
							{
								OFFSET 0.04056 1.59999 -0.09535
							}
						}
					}
				}
				JOINT LeftCollar
				{
					OFFSET 0 0 0
					CHANNELS 3 Zrotation Yrotation Xrotation
					JOINT LeftShoulder
					{
						OFFSET 3.30641 1.15764 0.01104
CHANNELS 3 Zrotation Xrotation Yrotation
						JOINT LeftElbow
						{
OFFSET 0 -4.632080 0.000000
CHANNELS 3 Zrotation Xrotation Yrotation
							JOINT LeftWrist
							{
OFFSET 0 -3.419240 -0.000000
CHANNELS 3 Zrotation Xrotation Yrotation
								JOINT lhand
								{
									OFFSET 0 0 0
CHANNELS 3 Zrotation Xrotation Yrotation
									JOINT LFingers
									{
OFFSET 0 -0.625370 -0.000000
CHANNELS 3 Zrotation Xrotation Yrotation
										End Site
										{
OFFSET 0 -0.504190 -0.000000
										}
									}
								}
								JOINT LThumb
								{
OFFSET 0 0.000000 0.000000
CHANNELS 3 Zrotation Xrotation Yrotation
									End Site
									{
OFFSET 0 -0.511890 0.511890
									}
								}
							}
						}
					}
				}
				JOINT RightCollar
				{
					OFFSET 0 0 0
					CHANNELS 3 Zrotation Yrotation Xrotation
					JOINT RightShoulder
					{
						OFFSET -3.78081 1.02180 -0.16609
CHANNELS 3 Zrotation Xrotation Yrotation
						JOINT RightElbow
						{
OFFSET 0 -4.406400 -0.000000
CHANNELS 3 Zrotation Xrotation Yrotation
							JOINT RightWrist
							{
OFFSET 0 -3.446750 0.000000
CHANNELS 3 Zrotation Xrotation Yrotation
								JOINT rhand
								{
									OFFSET 0 0 0
CHANNELS 3 Zrotation Xrotation Yrotation
									JOINT RFingers
									{
OFFSET 0 -0.513670 -0.000000
CHANNELS 3 Zrotation Xrotation Yrotation
										End Site
										{
OFFSET 0 -0.414140 -0.000000
										}
									}
								}
								JOINT RThumb
								{
OFFSET 0 0.000000 0.000000
CHANNELS 3 Zrotation Xrotation Yrotation
									End Site
									{
OFFSET 0 -0.420460 0.420460
									}
								}
							}
						}
					}
				}
			}
		}
	}
}
MOTION
Frames: 5
Frame Time: 0.008333333333333333
6.478500 16.624200 35.319800 179.650000 2.876500 -169.744000 0.000000 0.000000 0.000000 -19.548200 -9.487400 -5.465900 0.191000 2.814500 7.762800 0.518800 -5.871100 -12.869500 0.681100 -5.276800 -14.699700 0.000000 0.000000 0.000000 18.301400 5.783800 -6.135200 -0.199200 -2.873800 7.927500 -0.402500 2.560500 -11.375200 -0.991100 6.336000 -17.762600 -6.223600 0.908500 -10.234500 1.540700 1.903000 0.921500 5.444300 0.691100 6.480100 -3.239300 0.535900 -8.302900 6.961200 -4.222200 31.496200 2.406400 -2.647700 11.859500 0.000000 -0.000000 0.000000 -1.165300 -1.639600 -10.171200 7.657800 -12.996700 0.873600 37.934400 20.266200 23.871200 0.000000 0.000000 0.000000 -7.125000 0.000000 0.000000 5.210600 0.790000 5.159800 0.000000 -0.000000 0.000000 3.856000 4.715700 -20.200500 -10.377500 -17.327900 -1.585500 -21.373200 40.124200 40.854700 0.000000 0.000000 0.000000 7.125000 0.000000 -0.000000 23.433800 71.648700 -15.111900
6.478134 16.623542 35.315047 179.604664 2.914085 -169.765937 0.000000 0.000000 0.000000 -19.613644 -9.414497 -5.410985 0.188368 2.795050 7.708763 0.519312 -5.942321 -12.881638 0.708448 -5.379024 -14.992992 0.000000 0.000000 0.000000 18.243561 5.683623 -6.146534 -0.201174 -2.887839 7.966693 -0.415516 2.651902 -11.551862 -0.987883 6.326202 -17.733936 -6.177826 0.922759 -10.268063 1.487760 1.921865 0.944095 5.366206 0.700386 6.523681 -3.169249 0.588767 -8.425452 7.014871 -4.200263 31.617948 2.417149 -2.624813 11.933207 0.000000 0.000000 0.000000 -1.081868 -1.575033 -10.576953 7.687561 -13.045107 0.880254 37.987706 19.889915 23.688761 0.000000 0.000000 0.000000 -7.125000 0.000000 0.000000 5.279700 0.984943 5.210400 0.000000 0.000000 0.000000 3.952740 4.706267 -20.179148 -10.392636 -17.351372 -1.590034 -22.359907 39.926040 39.524321 0.000000 0.000000 0.000000 7.125000 0.000000 0.000000 20.095129 70.791492 -12.553293
6.478647 16.623300 35.310618 179.557479 2.947554 -169.785561 0.000000 0.000000 0.000000 -19.682788 -9.379376 -5.369805 0.187862 2.791461 7.698796 0.521581 -6.001888 -12.913754 0.712026 -5.392692 -15.032128 0.000000 0.000000 0.000000 18.184380 5.599493 -6.161059 -0.203611 -2.905393 8.015552 -0.429687 2.752831 -11.740641 -0.945774 6.192008 -17.343138 -6.186018 0.905387 -10.298389 1.481017 1.902210 0.966597 5.362518 0.687985 6.567724 -3.132402 0.637195 -8.473737 6.998715 -4.138465 31.666816 2.412452 -2.594665 11.957849 0.000000 0.000000 0.000000 -1.098091 -1.497519 -10.812437 7.727680 -13.110439 0.889359 37.985103 19.630580 23.523802 0.000000 0.000000 0.000000 -7.125000 0.000000 0.000000 5.311944 1.176926 5.224376 0.000000 0.000000 0.000000 3.941085 4.693875 -20.049355 -10.385437 -17.340161 -1.587908 -23.356833 39.694122 38.179236 0.000000 0.000000 0.000000 7.125000 0.000000 0.000000 16.939767 69.881289 -10.212216
6.479807 16.623126 35.306861 179.508638 2.971911 -169.792222 0.000000 0.000000 0.000000 -19.749337 -9.368945 -5.355257 0.188768 2.798253 7.717659 0.524174 -6.057413 -12.949560 0.700027 -5.348071 -14.904080 0.000000 0.000000 0.000000 18.124478 5.546611 -6.182628 -0.206104 -2.923363 8.065476 -0.445093 2.854687 -11.943762 -0.884625 5.994788 -16.769511 -6.238242 0.863685 -10.332778 1.509569 1.853755 0.985075 5.417472 0.659375 6.611532 -3.130383 0.684495 -8.479378 6.947588 -4.049062 31.672104 2.404240 -2.559311 11.953567 0.000000 0.000000 0.000000 -1.194372 -1.414918 -10.898566 7.771631 -13.182006 0.899385 37.951321 19.509072 23.353026 0.000000 0.000000 0.000000 -7.125000 0.000000 0.000000 5.326697 1.385354 5.219136 0.000000 0.000000 0.000000 3.848902 4.678407 -19.843597 -10.366862 -17.311310 -1.582377 -24.328927 39.444306 36.815689 0.000000 0.000000 0.000000 7.125000 0.000000 0.000000 14.004124 68.905329 -8.103155
6.481342 16.622468 35.304448 179.458184 2.977614 -169.766629 0.000000 0.000000 0.000000 -19.802716 -9.366093 -5.392476 0.190157 2.808271 7.745445 0.524832 -6.120517 -12.963380 0.683135 -5.284528 -14.722006 0.000000 0.000000 0.000000 18.064738 5.554581 -6.218604 -0.208005 -2.936818 8.102769 -0.462057 2.943750 -12.167149 -0.833366 5.823317 -16.272648 -6.325623 0.805480 -10.383671 1.561559 1.787506 0.992534 5.515163 0.620767 6.653943 -3.171478 0.735826 -8.486471 6.912051 -3.947350 31.674005 2.411186 -2.521214 11.948156 0.000000 0.000000 0.000000 -1.352095 -1.339090 -10.844822 7.809509 -13.243574 0.908014 37.921195 19.581463 23.137902 0.000000 0.000000 0.000000 -7.125000 0.000000 0.000000 5.352363 1.644206 5.219647 0.000000 0.000000 0.000000 3.708069 4.659176 -19.601929 -10.352750 -17.289446 -1.578136 -25.215603 39.199274 35.424618 0.000000 0.000000 0.000000 7.125000 0.000000 0.000000 11.382631 67.832339 -6.287173
